<?xml version="1.0" encoding="utf-8"?>
<!-- Svg Vector Icons : http://www.onlinewebfonts.com/icon -->
<!DOCTYPE svg PUBLIC "-//W3C//DTD SVG 1.1//EN" "http://www.w3.org/Graphics/SVG/1.1/DTD/svg11.dtd">
<svg fill = "white"  version="1.1" xmlns="http://www.w3.org/2000/svg" xmlns:xlink="http://www.w3.org/1999/xlink" x="0px" y="0px" viewBox="0 0 256 256" enable-background="new 0 0 256 256" xml:space="preserve">
<metadata> Svg Vector Icons : http://www.onlinewebfonts.com/icon </metadata>
<g><g><path fill="#000000" d="M91.6,43c0,14.5-11.7,26.3-26,26.3s-26-11.8-26-26.3c0-14.5,11.7-26.2,26-26.2S91.6,28.5,91.6,43z"/><path fill="#000000" d="M168.2,159.2c-21.9,0-39.7,17.9-39.7,40c0,22.1,17.7,40,39.7,40s39.7-17.9,39.7-40C207.8,177.1,190,159.2,168.2,159.2z M168.2,217.6c-10.1,0-18.3-8.3-18.3-18.4c0-10.2,8.2-18.4,18.3-18.4s18.3,8.3,18.3,18.4C186.4,209.4,178.2,217.6,168.2,217.6z"/><path fill="#000000" d="M179,96.7L179,96.7c-1.4-6.2-55.1-64.3-68.6-55.4c-9.7,6.4-1.5,16.5-1.5,16.5c18.1,4.5,53.2,45.8,53.2,45.8l0,0l-55.8,21.6c-6.6,4.2-19.1,4.2-19.1,26.7v31.8c0,9.8,12.1,20.9,21.9,20.9h9.4c-0.2,0-0.2-4.3-0.2-6c0-27.5,22.1-50.3,49.4-50.3c27.3,0,49.4,23,49.4,50.6c0,1.7-0.1,5.8-0.3,5.8H246V70.2L179,96.7z M102.1,151.6c-10.7-21,32.7-22.1,32.7-22.1L102.1,151.6z"/><path fill="#000000" d="M113.2,101.7c0,0-9.5-6.6-26.4,1.1c-22.2,10-18.4-28.6-41.3-36.4c0,0-23.1,0-33.1,39.1c0,0-7.8,25.4,3.9,58.8v57.6c0,0,11.8,18.4,29.4,0v-58.5c0,0-0.2-36.4,13.2-50c0,0,3,12.7,25.9,11.9C85,125.2,135.6,118,113.2,101.7z"/></g></g>
</svg>