<?xml version="1.0" encoding="utf-8"?>
<!-- Svg Vector Icons : http://www.onlinewebfonts.com/icon -->
<!DOCTYPE svg PUBLIC "-//W3C//DTD SVG 1.1//EN" "http://www.w3.org/Graphics/SVG/1.1/DTD/svg11.dtd">
<svg fill = "white"  version="1.1" xmlns="http://www.w3.org/2000/svg" xmlns:xlink="http://www.w3.org/1999/xlink" x="0px" y="0px" viewBox="0 0 256 256" enable-background="new 0 0 256 256" xml:space="preserve">
<metadata> Svg Vector Icons : http://www.onlinewebfonts.com/icon </metadata>
<g><g><g><path fill="#000000" d="M195.7,10.5c-12.7,2.8-23,11.2-28.1,22.8c-2.8,6.3-3.9,16.4-2.5,23l0.6,2.7l-22.9,23l-23,23l7.3,6.3l7.2,6.4h13h13l15.3-14.2c8.4-7.8,15.9-14.8,16.7-15.5l1.4-1.3l3,0.6c6.3,1.3,14.6,0.6,21.3-1.9c9.6-3.6,18.2-11.9,22.2-21.6c1.4-3.3,1.8-5,1.3-5c-0.1,0-5.2,1.4-11.2,3.1c-12.7,3.5-14.6,3.8-18.6,2.8c-8.7-2.2-13.7-8.2-15.1-18.2c-0.9-6.5,3.3-14.6,9.5-18c1.3-0.7,7.3-2.7,13.4-4.4c6.1-1.7,11.2-3.3,11.2-3.5c0-0.3-1.2-1.5-2.7-2.7c-3.1-2.5-9.8-5.9-13.9-7C210.1,9.9,199.7,9.6,195.7,10.5z"/><path fill="#000000" d="M15.6,16.4L10,22.1l11.8,14.5L33.6,51h4.3h4.3l40.1,40.1l40,40l0.5,11.5l0.5,11.5l45.8,45.6c25.2,25.1,46.2,45.7,46.6,45.9c1.5,0.6,5.7,0.3,8.3-0.6c7.2-2.5,16.8-11.7,20.6-19.7c1.3-2.7,1.5-3.8,1.5-6.6v-3.4L213.6,183c-17.8-17.8-38.6-38.5-46.2-45.9l-13.8-13.5l-11.7-0.6l-11.7-0.6L90.2,82.4l-40-40l0-4.2v-4.2L35.6,22.5L21.1,10.8L15.6,16.4z M207.4,188l29.1,29.1l-2.1,2.1c-1.1,1.1-2.2,1.9-2.4,1.7c-0.2-0.2-19.2-19.1-42.2-42.1l-41.9-41.7l2-2l1.9-2l13.3,12.9C172.4,153.1,191.4,172,207.4,188z M185.4,196.8c19.4,19.4,35.3,35.4,35.3,35.7c0,0.6-2.7,3.3-3.5,3.5c-0.3,0.1-19.5-18.7-42.6-41.8l-42-41.8l2-2l2-2l6.8,6.6C147.1,158.6,166,177.4,185.4,196.8z"/><path fill="#000000" d="M60,164.3c-40.2,40-45.2,45.1-46.4,47.6c-3.8,7.8-2.5,15.8,3.8,22.2c3.4,3.4,5.7,4.8,9.6,5.8c4,1,8.3,0.6,12.1-1c2.7-1.2,5.4-3.8,41.3-39.5l38.3-38.3v-14.6v-14.6l-5.9-5.2c-3.3-2.9-6.3-5.7-6.9-6.1C105,119.6,104.9,119.6,60,164.3z M35.7,216.6c1.3,1.4,1.5,2,1.5,3.9c0,3.6-2.2,5.7-6,5.7c-2.6,0-5.1-2.2-5.4-4.9C25.1,215.6,31.8,212.4,35.7,216.6z"/></g></g></g>
</svg>